<?xml version="1.0" standalone="no"?>
<!DOCTYPE svg PUBLIC "-//W3C//DTD SVG 20010904//EN"
 "http://www.w3.org/TR/2001/REC-SVG-20010904/DTD/svg10.dtd">
<svg version="1.0" xmlns="http://www.w3.org/2000/svg"
 width="1436.000000pt" height="1436.000000pt" viewBox="0 0 1436.000000 1436.000000"
 preserveAspectRatio="xMidYMid meet">
<metadata>
Created by potrace 1.14, written by Peter Selinger 2001-2017
</metadata>
<g transform="translate(0.000000,1436.000000) scale(0.100000,-0.100000)"
fill="#000000" stroke="none">
<path d="M10544 14334 c-3 -13 -10 -24 -16 -24 -5 0 -7 -4 -4 -9 6 -9 -19 -24
-44 -25 -8 -1 -21 -5 -29 -10 -10 -6 -12 -5 -7 2 12 19 -12 14 -24 -5 -11 -17
-11 -17 -6 -1 5 18 -16 21 -41 5 -6 -4 -14 -3 -18 3 -3 5 -16 10 -28 9 -21 0
-21 -1 -2 -10 21 -10 20 -10 -47 6 -10 2 -18 -2 -18 -8 0 -7 -4 -6 -10 3 -9
13 -13 12 -27 -5 -13 -16 -15 -17 -10 -2 4 11 1 17 -9 17 -9 0 -12 -5 -8 -12
4 -7 3 -8 -5 -4 -19 12 -63 18 -57 7 4 -5 -3 -7 -16 -3 -13 3 -19 1 -15 -5 4
-6 -1 -13 -11 -15 -24 -6 -53 2 -47 12 3 5 1 11 -5 15 -5 3 -10 1 -10 -4 0 -6
-5 -11 -11 -11 -5 0 -8 4 -5 9 3 5 -5 8 -18 7 -16 -1 -23 -6 -21 -17 2 -12 -3
-15 -21 -11 -13 2 -22 8 -19 12 3 4 -2 11 -11 14 -10 4 -13 2 -8 -7 6 -9 4 -9
-8 1 -11 9 -18 10 -23 2 -3 -6 -12 -7 -18 -3 -23 14 -52 8 -75 -16 -16 -18
-33 -24 -62 -24 -27 0 -40 -5 -40 -14 0 -7 -7 -13 -16 -13 -9 0 -13 -5 -9 -12
4 -7 -5 0 -19 15 -14 15 -26 22 -26 15 0 -10 -2 -10 -9 1 -10 16 -31 6 -31
-14 0 -9 -6 -12 -17 -8 -12 5 -14 3 -8 -7 6 -10 4 -11 -6 -4 -8 5 -18 9 -24
10 -5 0 -15 2 -21 2 -6 1 -10 14 -8 29 3 29 -13 56 -27 47 -5 -3 -12 1 -15 10
-3 8 -12 12 -20 9 -8 -3 -11 -9 -8 -14 3 -5 10 -6 16 -3 7 4 8 2 4 -5 -4 -6
-12 -9 -17 -6 -5 4 -9 -5 -9 -18 0 -26 -19 -29 -57 -9 -19 10 -23 10 -23 0 0
-9 -2 -10 -8 -1 -9 15 -50 -17 -44 -35 2 -7 -2 -11 -10 -10 -7 2 -12 -3 -11
-9 2 -7 -3 -13 -11 -13 -8 0 -23 -3 -33 -6 -15 -5 -15 -4 -3 5 13 9 13 11 -2
11 -10 0 -18 -7 -18 -15 0 -8 6 -15 13 -15 8 0 7 -4 -3 -10 -8 -5 -10 -10 -5
-10 6 0 3 -5 -5 -10 -8 -5 -23 -7 -34 -4 -13 4 -16 2 -11 -6 6 -9 3 -9 -12 -2
-11 6 -28 9 -39 8 -10 -2 -27 3 -36 12 -10 8 -18 13 -19 11 0 -2 -2 -15 -5
-28 -4 -21 -3 -22 13 -10 15 13 15 12 0 -12 -10 -14 -14 -29 -10 -34 5 -4 -2
-4 -15 0 -12 3 -22 3 -21 -2 4 -24 -4 -30 -40 -27 l-39 3 2 -37 c1 -20 6 -43
10 -51 6 -10 5 -12 -2 -7 -7 4 -12 2 -12 -3 0 -6 5 -11 12 -11 6 0 3 -6 -7
-14 -11 -8 -25 -12 -32 -9 -7 3 -16 -2 -19 -11 -3 -9 -15 -16 -26 -16 -11 0
-16 4 -12 11 3 6 0 15 -7 20 -11 7 -11 9 -1 9 7 0 10 5 7 11 -5 6 -12 4 -20
-7 -7 -10 -25 -17 -43 -17 -17 0 -29 -4 -26 -9 3 -4 0 -8 -7 -8 -8 0 -7 -5 2
-17 10 -11 10 -14 1 -9 -8 5 -11 1 -8 -16 4 -26 -11 -61 -23 -53 -5 2 -7 -14
-6 -37 2 -23 0 -36 -5 -29 -4 7 -10 13 -14 14 -10 3 -35 -46 -30 -55 3 -4 -1
-5 -9 -2 -17 6 -34 -15 -20 -25 5 -3 1 -14 -9 -23 -10 -10 -18 -14 -18 -9 0 5
-13 8 -30 7 -21 -2 -30 2 -30 13 0 11 -3 12 -8 5 -5 -9 -11 -8 -20 2 -7 8 -9
14 -5 14 4 0 2 5 -5 12 -7 7 -12 17 -12 23 0 5 4 3 10 -5 6 -10 9 -6 8 17 -1
24 -5 30 -17 26 -14 -4 -14 -3 -1 9 8 7 16 21 17 31 1 17 -1 16 -23 -4 -13
-12 -24 -18 -24 -13 0 5 -5 2 -10 -6 -6 -9 -10 -10 -10 -3 0 6 -9 10 -20 8
-13 -2 -20 2 -20 11 0 8 -7 14 -16 14 -13 0 -14 -3 -5 -13 9 -11 2 -13 -33
-12 -44 1 -44 1 -32 -25 7 -14 11 -34 9 -45 -3 -16 -2 -17 6 -5 7 9 11 10 11
3 0 -6 -4 -14 -9 -17 -5 -3 -8 -19 -7 -36 1 -16 0 -30 -3 -31 -3 0 -14 -2 -23
-4 -11 -2 -15 3 -13 16 2 10 -1 18 -8 16 -7 -1 -11 4 -9 12 2 8 -3 11 -13 8
-8 -4 -15 -2 -15 3 0 6 -6 10 -13 10 -9 0 -13 -17 -14 -55 0 -33 3 -52 9 -49
5 3 4 -3 -4 -15 -13 -22 -38 -29 -38 -11 0 6 -7 10 -16 10 -9 0 -12 5 -8 12 5
8 2 9 -10 5 -9 -4 -15 -3 -12 2 3 4 -4 17 -15 27 -11 10 -20 14 -19 9 5 -21 0
-36 -9 -30 -6 3 -8 -4 -6 -15 2 -11 0 -18 -6 -15 -5 4 -20 -3 -34 -13 -19 -15
-22 -21 -11 -25 8 -3 17 -1 20 6 2 7 4 1 3 -13 -1 -14 -9 -28 -17 -31 -17 -7
-22 -79 -6 -76 18 3 19 -45 2 -55 -9 -5 -14 -14 -11 -19 4 -5 12 -6 18 -2 7 3
4 -3 -6 -14 -14 -16 -15 -22 -5 -26 10 -4 10 -6 1 -6 -7 -1 -13 -7 -13 -15 0
-10 -10 -14 -35 -12 -24 2 -39 -2 -45 -13 -5 -9 -10 -12 -10 -7 0 5 -8 2 -17
-5 -9 -8 -14 -9 -10 -3 5 8 -7 11 -37 9 -35 -1 -43 1 -41 14 1 9 -2 24 -7 35
-8 14 -7 17 3 11 9 -6 11 -3 6 9 -4 10 -7 25 -7 34 0 14 -2 15 -9 2 -6 -8 -8
-17 -5 -21 2 -5 -5 -6 -16 -4 -11 2 -26 -3 -34 -11 -8 -8 -19 -14 -25 -14 -6
0 -11 -5 -11 -11 0 -8 -6 -7 -17 2 -12 10 -14 10 -9 1 4 -7 1 -15 -8 -18 -9
-3 -13 -11 -9 -18 4 -6 -1 -5 -10 2 -9 8 -21 11 -26 7 -7 -4 -8 1 -4 11 4 11
3 15 -4 11 -6 -4 -14 -1 -16 5 -3 8 -6 6 -6 -4 -1 -10 -5 -19 -11 -19 -40 -5
-77 -4 -91 2 -21 10 -61 0 -52 -14 3 -5 -8 -2 -26 9 -17 10 -31 22 -31 26 0 4
-8 8 -17 8 -9 0 -13 -3 -10 -7 11 -11 -14 -32 -30 -26 -11 5 -14 3 -8 -6 6
-10 3 -11 -12 -3 -26 14 -38 3 -40 -36 -1 -22 2 -30 10 -26 7 4 8 3 4 -2 -5
-5 -14 -9 -20 -9 -7 -1 -11 -6 -10 -12 2 -7 -6 -10 -17 -8 -11 2 -20 -1 -20
-6 0 -6 -7 -17 -15 -25 -8 -9 -15 -11 -15 -5 0 6 -7 11 -16 11 -9 0 -12 -5 -8
-12 6 -10 4 -10 -7 -2 -16 12 -29 12 -48 0 -10 -6 -12 -5 -7 2 4 7 1 12 -9 12
-9 0 -14 -4 -11 -9 7 -11 -13 -9 -32 3 -7 4 -20 2 -30 -5 -14 -11 -15 -11 -4
1 16 18 15 31 -1 24 -8 -3 -13 -17 -12 -32 2 -38 -4 -52 -22 -45 -8 3 -19 0
-24 -8 -5 -8 -9 -9 -9 -4 0 6 -13 11 -30 11 -16 1 -30 -2 -30 -7 0 -5 -5 -9
-11 -9 -5 0 -7 5 -4 10 9 14 -8 12 -24 -2 -11 -10 -13 -10 -7 0 5 7 1 12 -9
12 -9 0 -13 -4 -10 -10 3 -5 2 -10 -3 -10 -5 0 -9 -7 -9 -15 0 -11 4 -12 14
-4 13 12 17 6 14 -23 -1 -10 3 -18 10 -18 7 0 0 -10 -14 -23 -15 -12 -27 -27
-27 -32 0 -6 5 -3 10 5 5 8 10 10 10 4 0 -18 -28 -37 -58 -40 -15 -1 -30 -2
-34 -3 -5 -1 -8 -12 -8 -25 0 -23 -3 -24 -46 -22 -31 2 -51 -3 -65 -15 -12
-10 -28 -15 -41 -11 -16 4 -19 2 -13 -9 5 -8 0 -7 -12 4 -11 9 -23 14 -27 10
-4 -4 -4 0 -1 8 4 10 0 16 -9 16 -8 0 -12 -5 -9 -11 4 -6 0 -5 -9 1 -12 11
-20 9 -43 -11 -15 -13 -24 -29 -21 -35 4 -6 4 -11 -1 -10 -23 4 -33 -3 -33
-23 0 -17 -3 -19 -9 -9 -7 11 -10 9 -16 -8 -3 -12 -10 -19 -15 -16 -10 6 -8
-15 4 -34 6 -9 5 -12 -2 -7 -6 3 -13 2 -16 -2 -3 -5 -21 -8 -41 -7 -27 2 -33
0 -25 -9 10 -13 2 -16 -47 -17 -13 -1 -20 -6 -17 -11 4 -6 -2 -6 -14 1 -16 8
-25 6 -48 -12 -15 -12 -25 -17 -22 -11 5 7 -11 10 -42 11 -31 0 -47 -4 -43
-10 4 -6 1 -7 -8 -2 -7 5 -21 10 -31 10 -13 1 -15 -2 -7 -16 12 -23 11 -38 -1
-19 -8 13 -10 12 -10 -2 0 -22 -14 -23 -34 -3 -9 9 -26 14 -41 11 -20 -4 -28
0 -35 17 -7 17 -9 18 -9 5 -1 -18 -10 -22 -45 -18 -12 1 -16 -2 -11 -11 5 -7
4 -10 -1 -6 -6 3 -16 1 -24 -4 -13 -8 -13 -10 0 -19 10 -6 11 -10 3 -10 -7 0
-13 -9 -13 -21 0 -11 5 -17 10 -14 6 4 7 11 4 17 -5 7 -2 8 5 4 9 -6 9 -12 -2
-24 -8 -10 -13 -27 -12 -40 1 -13 -3 -26 -8 -29 -6 -3 -7 -1 -4 4 4 6 -4 11
-18 11 -14 0 -22 -5 -18 -11 4 -6 1 -7 -8 -1 -8 4 -19 9 -24 10 -15 2 -16 -37
-2 -55 9 -12 9 -13 0 -7 -8 4 -13 1 -13 -9 0 -9 -4 -13 -10 -10 -5 3 -10 -1
-10 -9 0 -9 -6 -16 -12 -16 -9 0 -8 -4 2 -11 13 -9 12 -10 -2 -5 -27 9 -44 13
-35 9 4 -3 7 -9 7 -14 0 -6 -5 -7 -12 -3 -8 5 -9 2 -5 -9 5 -14 0 -17 -26 -18
-18 -1 -36 -1 -41 0 -4 1 -15 -4 -24 -11 -11 -9 -13 -9 -9 -1 9 15 -32 14 -52
-1 -12 -9 -13 -8 -7 3 6 9 5 12 -5 9 -8 -3 -13 -11 -12 -17 2 -6 0 -10 -5 -10
-28 5 -39 -3 -40 -28 0 -45 -1 -48 -23 -61 -12 -8 -18 -9 -15 -4 3 5 -6 10
-19 10 -22 0 -23 -2 -10 -12 17 -12 11 -14 -48 -16 -10 -1 -15 -6 -11 -12 5
-7 2 -8 -7 -2 -21 13 -63 13 -71 0 -5 -7 -8 -7 -8 3 0 11 -3 11 -17 0 -14 -11
-15 -12 -9 -1 7 11 1 13 -28 9 -26 -3 -36 -1 -36 9 0 7 -9 19 -20 27 -11 8
-17 17 -12 22 4 5 2 5 -5 2 -6 -4 -10 -15 -8 -25 1 -9 -6 -27 -17 -39 -20 -21
-17 -49 4 -37 7 4 8 2 4 -5 -4 -6 -12 -9 -17 -6 -13 9 -11 -9 3 -24 7 -8 8
-11 2 -8 -6 3 -11 0 -11 -7 0 -8 6 -12 12 -9 7 2 15 -5 18 -16 4 -15 0 -19
-14 -16 -10 2 -18 1 -18 -3 6 -37 -53 -33 -78 5 -15 23 -16 23 -33 5 -10 -10
-16 -30 -15 -44 3 -23 0 -25 -25 -22 -22 4 -29 0 -34 -18 -9 -34 -8 -38 12
-32 16 5 16 5 0 -6 -20 -12 -25 -35 -5 -24 9 6 9 5 0 -7 -8 -10 -9 -19 -3 -25
6 -6 0 -10 -17 -12 -14 -1 -33 -8 -41 -15 -13 -9 -14 -9 -8 1 5 8 1 12 -11 12
-26 0 -39 -12 -38 -35 0 -25 -26 -53 -43 -47 -17 6 -44 -18 -38 -34 7 -18 -15
-31 -47 -28 -15 2 -25 -1 -22 -7 4 -5 1 -9 -4 -9 -6 0 -11 4 -11 10 0 5 -7 7
-15 4 -13 -5 -13 -9 -3 -22 10 -12 10 -14 1 -8 -8 4 -13 1 -13 -8 0 -10 -6
-13 -17 -9 -12 5 -14 3 -8 -7 6 -9 4 -11 -6 -4 -21 13 -89 13 -90 0 -1 -6 -2
-19 -2 -28 0 -10 -5 -18 -12 -18 -6 0 -18 -11 -25 -25 -10 -18 -16 -22 -22
-13 -5 9 -8 5 -8 -12 0 -20 -2 -22 -10 -10 -9 15 -11 13 -14 -12 -1 -8 -11
-12 -24 -10 -13 2 -33 -5 -45 -15 -19 -16 -20 -16 -8 0 11 14 11 17 -1 17 -8
0 -20 -6 -27 -12 -11 -10 -13 -10 -7 0 11 19 -21 14 -34 -5 -11 -17 -11 -17
-6 0 3 9 1 17 -3 17 -20 0 -41 -13 -41 -25 0 -8 -8 -11 -20 -8 -13 3 -20 0
-20 -8 0 -11 -2 -11 -9 -1 -12 19 -35 -12 -28 -39 4 -15 -1 -22 -16 -28 -12
-5 -28 -6 -36 -3 -7 3 -17 -1 -22 -9 -6 -10 -9 -10 -9 -1 0 6 -7 12 -15 12 -8
0 -15 -5 -15 -11 0 -5 -4 -7 -10 -4 -5 3 -10 -2 -11 -12 0 -10 -3 -13 -6 -5
-2 6 -9 12 -14 12 -6 0 -7 -5 -3 -12 4 -7 3 -8 -5 -4 -6 4 -19 2 -28 -6 -12
-9 -15 -9 -9 -1 5 9 2 11 -8 7 -15 -6 -18 -44 -3 -44 14 0 -18 -27 -41 -34
-12 -4 -20 -12 -17 -17 4 -5 -3 -9 -14 -9 -11 0 -22 -4 -25 -8 -3 -5 -24 -8
-48 -7 -24 1 -49 -3 -57 -9 -11 -8 -13 -8 -7 2 9 15 -4 15 -25 -1 -17 -13 -20
-63 -5 -87 5 -8 6 -12 2 -8 -4 3 -16 -2 -27 -13 -19 -19 -16 -47 7 -61 15 -10
7 -43 -14 -60 -13 -11 -14 -11 -8 0 6 10 3 13 -10 10 -21 -4 -27 -52 -10 -78
6 -8 6 -12 1 -7 -5 4 -17 -11 -27 -33 -10 -22 -21 -40 -24 -40 -3 0 -2 5 2 12
4 6 -3 4 -15 -5 -13 -8 -30 -13 -39 -10 -11 5 -14 2 -9 -11 4 -10 3 -15 -3
-11 -7 4 -9 -5 -5 -24 3 -19 0 -35 -10 -45 -18 -18 -20 -30 -2 -20 6 3 0 -5
-15 -20 -32 -30 -33 -36 -15 -55 10 -11 9 -12 -2 -6 -11 6 -13 3 -9 -12 4 -15
1 -20 -11 -19 -9 1 -15 -6 -15 -16 1 -10 -3 -16 -10 -15 -6 1 -10 -4 -8 -10 1
-7 -4 -13 -12 -13 -8 0 -17 -6 -19 -12 -4 -10 -6 -10 -6 0 -1 6 -6 12 -12 12
-5 0 -7 -6 -3 -12 6 -10 4 -10 -7 0 -7 6 -17 12 -22 12 -4 0 -5 -6 -1 -12 6
-10 4 -10 -7 0 -7 6 -17 12 -22 12 -4 0 -5 -6 -1 -12 5 -9 2 -9 -9 1 -15 12
-18 10 -23 -17 -4 -17 -11 -30 -17 -29 -6 1 -12 -8 -13 -20 -3 -41 -4 -44 -13
-39 -4 3 -8 -5 -7 -17 1 -12 -6 -27 -14 -34 -12 -8 -16 -29 -15 -86 0 -66 -2
-74 -17 -72 -20 4 -24 -11 -5 -18 6 -3 2 -6 -10 -6 -21 -1 -50 -36 -45 -53 1
-5 -3 -8 -9 -8 -5 0 -7 -4 -4 -10 3 -6 -1 -7 -9 -4 -19 7 -21 -7 -3 -25 10
-11 10 -13 0 -7 -7 4 -13 2 -13 -4 0 -6 -5 -8 -11 -4 -6 3 -15 0 -20 -7 -7
-12 -9 -12 -9 0 0 11 -3 11 -17 0 -14 -12 -16 -12 -9 1 5 8 -3 2 -17 -13 -29
-33 -26 -56 7 -53 18 2 22 -1 18 -16 -4 -16 -20 -23 -44 -19 -4 0 -5 -6 -2
-14 4 -10 0 -15 -11 -15 -9 0 -13 -4 -10 -10 3 -5 -4 -10 -16 -10 -18 0 -19
-2 -9 -15 10 -13 10 -19 -4 -33 -9 -10 -13 -23 -9 -27 5 -5 -1 -3 -11 5 -18
14 -19 13 -13 -2 3 -10 -1 -22 -11 -30 -13 -11 -14 -11 -7 1 6 10 4 12 -4 7
-7 -5 -10 -14 -8 -21 3 -6 -3 -19 -14 -28 -21 -19 -26 -42 -7 -31 11 6 11 4 0
-7 -6 -7 -12 -17 -12 -22 0 -4 6 -5 12 -1 9 5 8 2 -1 -9 -8 -10 -11 -20 -8
-24 3 -3 -7 -17 -23 -31 -17 -15 -30 -33 -30 -42 0 -13 -1 -13 -10 0 -5 8 -10
13 -10 10 -1 -3 -3 -22 -6 -42 -4 -24 -2 -38 5 -38 6 0 11 -8 11 -17 0 -15 -2
-16 -10 -3 -8 12 -10 9 -10 -11 0 -15 -7 -32 -15 -39 -8 -7 -15 -21 -15 -31 0
-11 -4 -19 -9 -19 -5 0 -8 -11 -9 -25 0 -15 5 -22 12 -18 6 3 7 2 3 -3 -5 -5
-16 -9 -25 -9 -9 0 -19 -11 -23 -25 -4 -14 -7 -19 -8 -12 -1 19 -61 -43 -66
-68 -2 -11 0 -18 4 -15 11 6 27 -16 25 -35 -1 -8 -2 -21 -3 -28 0 -7 -5 -10
-11 -7 -5 3 -10 1 -10 -4 0 -10 7 -12 26 -10 3 0 12 -8 19 -18 11 -14 16 -16
26 -5 7 6 18 12 23 12 6 0 4 -5 -4 -10 -11 -7 -10 -9 9 -7 l23 1 -21 17 c-18
15 -18 18 -5 23 26 10 54 7 55 -6 3 -34 -4 -64 -18 -78 -9 -8 -13 -9 -9 -3 5
9 2 11 -8 7 -9 -3 -16 -13 -16 -21 0 -8 -4 -12 -9 -8 -11 6 -25 -30 -17 -44 3
-5 -2 -8 -12 -7 -10 0 -16 -6 -16 -16 1 -10 -2 -15 -7 -12 -5 3 -19 2 -30 -1
-16 -5 -20 -13 -16 -31 2 -14 0 -27 -6 -31 -6 -3 -7 -1 -3 5 5 8 -1 12 -14 12
-14 0 -19 -4 -14 -12 6 -10 4 -10 -7 0 -19 17 -34 15 -19 -3 11 -13 10 -14 -3
-9 -12 4 -15 0 -13 -19 2 -16 -2 -24 -12 -23 -8 0 -16 -7 -17 -17 -2 -9 1 -15
5 -12 5 3 3 -7 -5 -21 -8 -15 -12 -31 -9 -36 3 -4 -3 -5 -12 -1 -11 4 -15 2
-11 -4 4 -6 -3 -13 -15 -16 -18 -5 -19 -8 -8 -22 11 -14 10 -17 -9 -22 -17 -4
-19 -8 -9 -14 11 -7 11 -9 -1 -9 -11 0 -11 -3 0 -17 10 -11 10 -14 1 -9 -14 8
-12 -19 2 -44 5 -8 6 -12 2 -8 -10 8 -36 -14 -29 -24 2 -5 0 -8 -5 -8 -4 0 -8
-17 -7 -37 2 -50 -3 -63 -23 -55 -15 5 -15 4 -3 -11 8 -10 11 -20 7 -24 -3 -3
-6 -1 -6 6 0 7 -5 9 -10 6 -6 -4 -8 -10 -5 -15 3 -4 -1 -11 -7 -13 -10 -4 -10
-8 1 -15 11 -8 11 -10 0 -15 -12 -4 -11 -7 1 -16 12 -9 13 -11 1 -11 -8 0 -11
-3 -8 -7 12 -12 -14 -31 -35 -25 -14 3 -19 1 -15 -6 8 -12 -11 -11 -32 3 -10
5 -16 4 -19 -3 -2 -7 -8 -12 -13 -12 -6 0 -8 4 -5 9 11 17 -51 6 -70 -13 -10
-10 -12 -15 -4 -11 13 8 13 7 0 -10 -17 -21 -17 -24 2 -36 10 -7 10 -9 -2 -9
-13 0 -13 -2 -1 -9 9 -6 22 -6 34 1 11 5 17 6 14 1 -7 -11 38 -54 47 -46 3 4
6 1 6 -5 0 -7 -4 -12 -10 -12 -15 0 24 -60 40 -60 10 -1 8 -6 -8 -17 -12 -8
-22 -23 -22 -31 0 -13 3 -12 16 4 15 18 15 17 2 -6 -8 -14 -14 -35 -13 -47 1
-15 -3 -19 -14 -15 -14 5 -14 4 -1 -13 12 -15 12 -17 1 -10 -11 6 -13 4 -8 -8
3 -9 -1 -21 -11 -29 -11 -9 -14 -10 -8 0 4 6 3 12 -2 12 -6 0 -9 -11 -8 -24 0
-15 6 -23 16 -21 11 2 15 -6 14 -34 -1 -28 -5 -35 -18 -33 -10 2 -23 -2 -31
-8 -9 -8 -15 -8 -20 0 -3 5 -11 10 -17 10 -6 0 -6 -6 2 -15 11 -13 10 -14 -3
-10 -8 4 -18 1 -23 -6 -5 -8 -3 -10 7 -4 11 6 11 5 3 -4 -6 -7 -18 -13 -25
-14 -8 -2 -20 -7 -28 -11 -10 -7 -12 -6 -6 4 6 9 4 11 -4 6 -7 -5 -10 -14 -7
-22 3 -8 2 -13 -2 -13 -19 3 -25 -2 -12 -11 10 -6 11 -10 3 -10 -7 0 -13 -7
-13 -16 0 -8 -5 -12 -10 -9 -11 7 -12 4 -14 -42 -2 -29 9 -41 29 -30 2 1 10
-6 17 -16 12 -16 15 -16 41 8 16 15 24 31 20 38 -4 7 0 6 10 -2 14 -11 17 -11
17 0 0 10 2 11 8 2 4 -6 14 -11 22 -11 50 3 56 -1 55 -39 -1 -21 3 -44 9 -52
8 -11 8 -13 -1 -7 -8 4 -13 1 -13 -9 0 -9 -4 -14 -9 -10 -5 3 -13 -5 -17 -17
-4 -13 -10 -25 -15 -28 -7 -5 -15 -33 -18 -63 -1 -4 -6 -6 -12 -5 -6 2 -13 -5
-14 -14 -3 -16 7 -23 28 -19 4 1 7 -6 5 -15 -2 -9 3 -19 11 -22 10 -3 11 0 5
9 -6 11 -3 10 12 -1 29 -23 31 -28 29 -71 -1 -23 3 -39 9 -39 6 0 5 -4 -3 -9
-9 -6 -10 -11 -2 -15 6 -4 8 -13 4 -19 -11 -17 -11 -29 0 -51 6 -13 6 -16 -2
-12 -14 9 -14 0 0 -26 8 -15 8 -19 0 -14 -6 4 -11 0 -11 -8 0 -10 6 -13 18 -9
14 5 13 3 -3 -10 -17 -14 -18 -18 -5 -27 8 -5 10 -10 5 -10 -6 0 -11 -9 -12
-19 -1 -15 3 -18 15 -14 13 4 12 2 -3 -10 -17 -14 -18 -18 -5 -27 13 -8 13
-10 0 -10 -11 0 -11 -3 -2 -12 7 -7 12 -17 12 -22 0 -6 -4 -4 -10 4 -6 10 -9
6 -8 -17 1 -24 5 -30 17 -26 11 4 10 0 -4 -10 -17 -14 -18 -18 -5 -27 10 -6
11 -10 3 -10 -7 0 -10 -6 -7 -14 3 -8 -2 -16 -12 -18 -12 -2 -18 -14 -19 -41
-3 -34 -1 -36 13 -25 15 11 15 11 5 -3 -7 -9 -9 -20 -5 -24 4 -5 1 -5 -5 -1
-16 9 -18 -20 -3 -29 7 -4 7 -13 0 -24 -6 -12 -5 -22 3 -31 7 -7 7 -10 2 -7
-7 3 -10 -27 -11 -84 0 -56 3 -84 9 -77 6 9 6 6 1 -7 -11 -31 -11 -88 1 -104
7 -11 7 -13 -2 -7 -8 4 -13 1 -13 -9 0 -10 5 -13 13 -9 8 5 8 2 -2 -9 -10 -12
-10 -21 -3 -30 7 -8 7 -18 2 -27 -6 -9 -4 -20 3 -29 9 -12 9 -13 0 -7 -8 4
-13 1 -13 -9 0 -10 5 -13 13 -9 8 5 8 2 -2 -9 -10 -13 -11 -20 -2 -31 8 -9 8
-16 2 -20 -5 -4 -9 -29 -7 -56 2 -35 0 -50 -9 -50 -7 0 -16 -7 -19 -16 -9 -23
-8 -26 7 -18 9 6 9 4 0 -7 -17 -17 -17 -43 -1 -33 10 6 10 4 0 -8 -7 -9 -12
-20 -11 -24 3 -18 -1 -37 -7 -31 -4 3 -15 -4 -25 -17 -19 -24 -17 -56 3 -56 6
0 7 -7 4 -16 -4 -9 -1 -24 6 -32 10 -12 10 -14 1 -8 -7 4 -13 3 -13 -1 0 -5 6
-15 13 -22 10 -11 9 -12 -2 -6 -11 6 -13 2 -9 -19 3 -17 1 -29 -7 -32 -13 -6
-14 -81 0 -103 5 -9 4 -12 -2 -8 -6 4 -10 -16 -9 -53 1 -40 -3 -60 -11 -60 -6
0 -15 -5 -19 -12 -5 -7 -3 -8 7 -3 11 7 12 6 2 -6 -10 -12 -10 -18 0 -29 7 -8
8 -11 1 -7 -7 4 -14 -2 -17 -14 -4 -14 -10 -18 -19 -13 -9 5 -8 2 2 -11 12
-15 12 -17 1 -10 -11 6 -13 3 -9 -13 4 -15 2 -19 -9 -15 -10 4 -8 -4 7 -31 11
-21 16 -35 10 -31 -14 9 -13 -8 2 -24 10 -11 10 -13 1 -7 -8 5 -13 1 -13 -9 0
-10 -5 -13 -12 -9 -8 5 -7 0 2 -11 10 -13 11 -16 2 -11 -9 5 -13 3 -11 -5 3
-28 -2 -39 -18 -39 -16 -1 -16 -2 2 -17 16 -13 17 -15 2 -10 -11 4 -17 1 -17
-9 0 -9 5 -12 12 -8 7 5 8 3 2 -7 -4 -8 -9 -24 -10 -37 -1 -17 3 -22 15 -17
15 5 15 4 0 -8 -9 -6 -19 -22 -23 -35 -4 -12 -11 -22 -15 -22 -11 0 -11 -99 0
-106 5 -3 4 -15 -2 -27 -9 -16 -9 -22 0 -25 6 -2 11 -8 11 -13 0 -6 -4 -7 -10
-4 -14 9 -12 -8 3 -24 9 -11 9 -13 0 -7 -7 4 -13 2 -13 -3 0 -6 6 -11 13 -11
8 0 8 -3 -2 -9 -8 -5 -12 -15 -9 -23 3 -8 0 -22 -8 -33 -8 -10 -14 -13 -14 -7
0 7 -5 12 -11 12 -6 0 -8 -7 -5 -16 3 -8 2 -13 -3 -10 -4 3 -7 -16 -7 -42 1
-32 -3 -47 -12 -47 -16 0 -33 -26 -25 -39 4 -5 -1 -7 -11 -3 -11 4 -15 3 -11
-4 4 -6 14 -8 22 -5 11 5 13 2 9 -9 -3 -9 -2 -13 4 -10 6 3 13 -2 17 -12 4
-10 11 -21 17 -25 8 -6 8 -8 0 -8 -13 0 -12 -38 0 -59 6 -9 5 -12 -2 -7 -7 4
-10 -4 -10 -23 1 -22 5 -28 17 -24 12 3 12 2 -1 -7 -20 -13 -25 -45 -5 -34 10
6 10 4 0 -7 -7 -7 -13 -22 -13 -34 0 -16 2 -17 10 -5 6 9 10 10 10 3 0 -6 -4
-14 -9 -17 -11 -7 -9 -25 3 -45 6 -10 5 -12 -2 -7 -14 8 -11 -59 3 -71 4 -5 5
-2 0 6 -5 9 -4 12 3 7 6 -3 9 -15 7 -26 -2 -11 1 -22 6 -26 6 -3 5 -12 -3 -21
-7 -9 -11 -19 -10 -22 20 -33 23 -43 13 -37 -6 4 -11 0 -11 -8 0 -10 6 -13 18
-10 14 5 14 4 3 -4 -18 -13 -24 -85 -7 -75 7 4 6 1 -1 -8 -10 -12 -9 -18 7
-32 11 -9 17 -23 14 -32 -4 -8 -1 -15 5 -15 6 0 8 -7 4 -17 -4 -11 -3 -14 5
-9 11 7 17 -6 13 -28 -1 -5 5 -6 14 -3 8 4 15 2 15 -4 0 -6 6 -7 13 -3 8 5 8
2 -2 -9 -12 -15 -11 -17 3 -17 9 0 16 -6 16 -12 0 -9 4 -8 10 2 8 13 10 12 11
-5 1 -11 1 -23 0 -27 0 -5 6 -8 14 -8 9 0 21 -11 27 -25 10 -22 25 -30 50 -26
4 0 4 -7 1 -16 -4 -11 -3 -14 5 -9 7 4 12 1 12 -9 0 -9 5 -13 10 -10 6 3 10 1
10 -4 0 -6 4 -10 9 -8 5 1 17 -7 26 -18 9 -11 14 -13 10 -5 -4 8 2 4 13 -9 12
-15 26 -22 35 -18 16 6 39 -15 50 -46 4 -10 11 -16 16 -13 5 3 15 -2 22 -11
12 -14 12 -16 -1 -8 -12 6 -13 5 -3 -5 10 -11 15 -11 29 1 12 9 15 10 10 2 -5
-9 0 -13 13 -13 19 0 26 -11 22 -34 -1 -5 6 -5 16 -2 9 4 14 4 11 0 -14 -13
12 -41 37 -41 13 0 23 3 20 7 -2 3 2 7 10 7 8 0 12 -4 9 -9 -3 -4 3 -8 13 -8
11 0 24 -5 30 -11 8 -8 17 -8 31 0 15 8 23 8 28 0 3 -6 15 -9 25 -6 11 3 19 0
19 -8 0 -16 19 -24 52 -20 19 2 28 -2 31 -16 3 -10 13 -19 22 -19 9 0 14 -4
10 -9 -3 -5 0 -13 6 -17 8 -4 9 -3 5 4 -4 7 -2 12 3 12 6 0 11 -4 11 -8 0 -4
11 -9 25 -10 14 -1 25 3 25 9 0 5 -5 7 -12 3 -7 -5 -8 -3 -3 6 6 10 11 9 21
-4 7 -10 17 -15 22 -12 5 3 15 -1 22 -9 6 -7 17 -12 24 -9 19 7 46 -23 39 -43
-5 -12 -3 -14 8 -8 11 6 12 5 2 -6 -7 -7 -13 -17 -13 -22 0 -4 6 -5 13 -1 9 6
9 5 0 -7 -10 -12 -10 -18 0 -29 9 -10 9 -11 0 -6 -16 9 -17 -10 -3 -19 8 -5 7
-11 -1 -21 -9 -11 -8 -14 2 -14 12 0 12 -2 0 -9 -11 -7 -11 -9 0 -14 10 -4 10
-6 2 -6 -7 -1 -13 -8 -13 -17 0 -8 5 -12 11 -9 6 4 5 -3 -3 -14 -11 -18 -11
-23 2 -31 8 -5 10 -10 5 -10 -6 0 -11 -11 -11 -25 0 -15 6 -25 14 -25 7 0 12
-6 9 -12 -2 -7 3 -22 12 -33 14 -17 14 -18 0 -7 -14 10 -16 7 -17 -24 -1 -25
2 -33 11 -28 9 5 9 4 0 -7 -7 -7 -13 -17 -13 -22 0 -4 6 -5 13 -1 9 6 9 4 1
-7 -12 -16 -12 -29 0 -48 6 -10 5 -12 -2 -7 -14 8 -12 -20 2 -43 7 -10 5 -12
-3 -6 -9 5 -12 0 -10 -16 2 -13 -1 -31 -6 -39 -21 -34 -13 -48 27 -45 34 2 38
0 38 -22 0 -16 4 -22 12 -17 7 5 8 3 2 -7 -15 -25 -13 -41 6 -46 12 -3 16 -11
12 -26 -5 -20 -4 -21 14 -7 18 14 18 14 3 -5 -16 -20 -15 -50 1 -40 5 3 7 -6
4 -19 -2 -14 1 -28 7 -32 8 -4 9 -3 5 4 -15 24 2 11 19 -14 9 -15 12 -24 7
-20 -6 4 -10 -2 -9 -13 0 -11 5 -17 10 -14 14 9 26 -17 22 -48 -2 -16 1 -32 7
-35 7 -5 8 -2 4 7 -4 8 -1 6 8 -4 8 -11 12 -25 9 -33 -3 -8 1 -16 9 -19 8 -3
13 -17 12 -35 -1 -16 1 -29 5 -28 20 2 26 -6 27 -36 1 -31 34 -85 34 -55 0 7
3 9 6 6 4 -4 1 -13 -6 -22 -8 -10 -9 -15 -1 -15 6 0 11 -7 11 -16 0 -8 4 -13
9 -10 7 5 21 -14 25 -34 1 -3 5 -11 10 -19 6 -10 5 -12 -2 -7 -19 11 -14 -9 8
-34 11 -12 17 -27 14 -31 -3 -5 0 -9 6 -9 6 0 8 -4 5 -10 -3 -5 0 -10 8 -10 9
0 14 -9 13 -22 0 -13 4 -22 11 -21 7 2 10 -6 8 -18 -3 -16 -1 -18 9 -10 16 14
27 4 19 -17 -5 -11 -3 -13 6 -7 10 6 11 3 2 -14 -7 -12 -8 -21 -4 -20 17 3 33
-1 31 -8 -1 -5 3 -17 9 -28 6 -11 10 -32 8 -47 -2 -15 0 -27 3 -27 18 3 35 -2
29 -7 -3 -3 9 -20 26 -37 18 -17 30 -38 29 -46 -3 -12 -1 -12 10 -3 12 10 14
6 11 -21 -3 -18 -1 -27 4 -21 10 14 26 -1 31 -30 2 -10 13 -28 24 -40 12 -11
18 -14 14 -6 -4 8 -1 6 8 -4 8 -10 13 -24 9 -29 -4 -6 0 -8 9 -4 11 4 16 -1
16 -20 0 -14 6 -30 14 -34 9 -5 14 -19 12 -34 -2 -23 0 -25 14 -13 9 7 14 8
10 4 -4 -5 0 -16 10 -25 20 -18 23 -51 6 -72 -17 -23 -11 -44 14 -43 20 1 27
-7 23 -28 -2 -12 14 -9 27 4 9 9 12 9 12 0 0 -7 5 -12 11 -12 5 0 7 5 3 12 -5
7 -3 8 7 2 8 -4 23 -10 34 -11 11 -2 24 -9 30 -15 7 -8 6 -9 -4 -3 -10 6 -12
4 -6 -4 4 -7 16 -10 27 -8 16 4 17 3 7 -9 -6 -8 -10 -14 -8 -15 44 -8 50 -8
43 3 -4 8 -3 10 2 5 5 -5 9 -14 9 -20 1 -7 6 -11 13 -10 7 2 12 -7 12 -18 0
-16 5 -20 20 -16 12 3 18 1 14 -5 -7 -11 31 -50 40 -41 3 4 6 -1 6 -10 0 -9 9
-21 19 -27 13 -6 18 -18 16 -35 -1 -18 1 -22 9 -16 8 7 12 2 14 -17 1 -15 12
-34 24 -43 16 -13 18 -18 7 -22 -8 -3 -5 -6 8 -6 13 -1 22 -4 22 -8 -3 -20 2
-34 11 -28 6 3 10 1 10 -5 0 -6 12 -22 26 -35 16 -14 21 -25 14 -25 -9 0 -7
-6 6 -16 10 -8 12 -12 4 -8 -12 7 -13 5 -3 -8 7 -8 10 -18 6 -22 -4 -4 0 -4
10 0 16 6 22 -5 18 -29 -1 -5 8 -6 19 -2 15 5 18 3 14 -9 -4 -9 0 -18 9 -22
15 -5 17 -27 5 -40 -12 -11 16 -44 37 -44 17 0 17 -2 5 -10 -13 -8 -11 -11 7
-16 13 -4 20 -10 17 -15 -3 -5 2 -6 10 -3 9 3 16 1 16 -5 0 -17 49 -63 59 -56
5 3 12 1 16 -5 4 -6 11 -7 17 -4 7 4 8 2 4 -4 -4 -7 -2 -12 5 -12 7 0 10 -3 7
-6 -9 -8 41 -54 60 -54 15 0 15 -2 2 -10 -8 -5 -10 -10 -5 -11 45 -3 69 -10
75 -19 4 -7 9 -11 11 -10 11 4 38 -13 33 -21 -3 -5 3 -8 13 -7 34 3 66 -2 60
-9 -14 -13 39 -38 81 -38 26 0 46 -6 52 -14 11 -18 40 -23 40 -8 0 8 3 8 8 2
8 -13 22 -13 41 -1 10 6 12 5 7 -2 -4 -7 -1 -12 8 -12 9 0 13 -6 10 -13 -4
-10 7 -13 46 -12 27 1 50 -2 50 -7 0 -5 6 -6 13 -2 9 6 9 5 -1 -8 -10 -13 -8
-15 15 -16 47 0 54 -2 49 -10 -3 -5 8 -9 24 -10 17 0 30 5 30 11 0 8 3 8 8 2
11 -16 45 -19 37 -3 -6 10 -5 11 6 0 15 -14 33 -16 25 -3 -7 11 13 9 32 -2 6
-5 16 -6 20 -3 5 3 15 -3 24 -13 14 -16 42 -19 122 -12 5 1 2 9 -5 18 -12 14
-12 16 0 8 11 -6 13 -4 8 9 -4 9 -3 14 2 11 5 -3 11 3 13 12 2 12 14 18 38 19
19 1 41 2 48 3 6 1 12 10 12 20 0 11 5 23 12 27 7 5 9 2 4 -7 -5 -9 -2 -8 6 2
10 12 21 13 46 7 22 -6 30 -13 25 -21 -4 -7 2 -5 12 3 10 8 16 10 12 3 -6 -9
2 -11 28 -9 24 1 32 -1 25 -8 -14 -14 -12 -23 5 -23 8 0 11 5 8 11 -3 6 0 5 8
-2 16 -15 33 -16 23 -1 -5 8 -1 8 14 0 27 -14 35 -14 26 1 -4 7 -3 8 4 4 22
-13 52 -15 52 -3 0 7 4 6 10 -3 9 -13 13 -12 27 5 10 14 14 15 10 4 -4 -12 2
-16 26 -17 23 -1 27 2 17 8 -9 6 -10 10 -3 10 6 0 15 -5 19 -11 4 -8 9 -7 15
2 5 8 9 9 9 3 0 -6 18 -11 39 -11 22 0 40 3 39 6 -2 17 3 31 10 30 18 -3 24 2
14 14 -8 10 3 12 53 11 35 0 62 3 59 8 -3 4 0 8 6 8 6 0 8 5 4 12 -5 7 -3 8 7
2 25 -15 60 -12 70 7 6 12 15 16 27 12 15 -6 16 -5 3 13 -14 18 -14 18 4 2 16
-15 20 -15 29 -2 18 24 70 26 86 3 15 -20 36 -27 24 -8 -5 8 -1 8 14 0 21 -11
39 0 28 18 -3 5 10 7 29 5 24 -2 33 1 29 8 -5 7 -2 8 7 2 27 -16 41 -13 36 8
-3 11 -3 17 0 14 8 -8 43 45 37 56 -3 4 2 5 10 2 10 -4 16 -1 16 8 0 11 10 14
41 11 30 -3 39 -1 33 8 -5 8 -3 9 7 3 8 -4 22 -10 32 -11 10 -2 26 -10 34 -19
13 -13 17 -13 24 -2 7 11 9 11 9 0 0 -7 4 -11 8 -8 5 3 15 -4 22 -14 11 -16
17 -17 29 -7 12 10 13 9 7 -1 -6 -10 -1 -12 21 -9 15 3 27 10 25 16 -1 7 2 10
7 6 6 -3 24 1 41 10 27 14 30 18 18 33 -11 15 -11 15 3 4 18 -14 61 -3 76 20
11 17 49 47 39 30 -14 -23 5 -12 46 27 25 25 37 44 33 52 -5 8 -4 10 3 5 15
-9 114 62 111 80 0 3 3 9 7 12 4 4 4 2 0 -5 -3 -6 -2 -14 3 -17 8 -6 37 24 69
70 7 11 10 12 6 5 -5 -9 4 -6 23 7 17 12 35 22 40 22 4 0 1 -5 -7 -10 -9 -6
-10 -10 -3 -10 6 0 19 10 27 22 9 12 16 17 16 10 0 -7 5 -10 10 -7 6 4 8 11 5
16 -3 5 0 6 8 3 17 -6 41 21 32 35 -4 7 1 8 11 4 13 -5 16 -2 12 8 -5 13 4 15
54 14 47 -2 58 1 54 12 -3 8 -1 11 4 8 13 -8 71 40 62 51 -4 5 0 3 10 -4 11
-9 18 -10 23 -2 3 6 12 7 18 3 18 -11 37 -12 37 -2 0 5 6 8 13 6 6 -1 11 4 9
11 -1 8 2 11 7 7 20 -12 59 7 65 31 4 13 17 34 30 47 31 31 92 75 82 59 -9
-16 13 -15 47 1 20 9 27 20 28 42 0 17 3 24 6 18 2 -7 9 -13 14 -13 6 0 7 5 4
10 -5 9 8 12 31 9 4 0 11 5 15 13 5 7 9 8 9 2 0 -6 6 -11 13 -11 8 0 14 6 14
13 0 7 -5 11 -10 7 -5 -3 -1 6 8 21 10 14 21 26 26 26 5 0 8 5 6 12 -1 6 9 12
23 12 14 1 24 6 23 13 -2 7 4 10 12 7 9 -4 18 2 24 17 5 13 10 20 11 14 0 -5
4 -3 10 5 6 9 5 20 -3 29 -9 12 -9 13 1 7 8 -5 12 1 12 18 0 20 4 24 17 19 11
-4 14 -3 9 5 -4 7 -2 12 3 12 6 0 11 -6 12 -12 0 -7 5 -2 10 11 6 15 15 21 24
17 8 -3 15 0 15 6 0 6 3 8 7 5 3 -4 11 3 17 16 7 12 17 23 24 23 25 3 27 5 12
14 -8 5 -10 10 -4 10 7 0 14 9 17 20 3 13 11 18 26 15 16 -3 21 1 21 17 0 12
3 18 7 15 3 -4 13 -1 21 6 9 6 13 7 9 1 -3 -6 0 -11 8 -11 7 0 12 8 10 17 -3
18 8 42 19 41 3 -1 7 2 8 7 1 4 14 21 30 37 15 17 28 38 28 47 0 12 5 15 18
11 15 -6 16 -5 2 12 -9 11 -10 16 -2 11 7 -4 12 -2 12 4 0 6 4 9 9 6 5 -3 12
1 15 10 3 8 10 12 16 9 5 -3 10 -1 10 4 0 6 9 20 20 31 12 12 18 25 15 30 -4
6 1 7 11 3 11 -4 15 -3 10 5 -3 6 1 15 10 20 11 6 15 17 12 30 -4 16 -2 20 12
17 14 -3 18 2 15 15 -3 14 1 18 16 15 11 -2 17 0 14 6 -6 8 8 13 28 10 4 -1 3
8 -3 20 -7 11 -9 23 -6 27 3 3 6 -1 7 -9 0 -8 5 -3 11 11 15 33 16 43 6 56 -6
8 0 10 17 9 14 -2 23 1 20 5 -3 5 -1 11 5 15 6 4 8 11 5 16 -3 5 1 6 9 3 11
-4 16 0 16 10 0 9 4 15 9 14 5 -2 10 2 11 7 1 6 8 14 16 18 9 5 13 16 9 28 -4
13 -2 19 9 19 8 0 18 5 22 12 5 7 3 8 -7 3 -12 -8 -12 -6 0 8 11 14 11 17 0
17 -11 0 -11 2 1 10 8 5 11 12 7 16 -4 4 2 13 12 21 12 8 18 22 17 37 -2 17 1
23 11 19 8 -3 13 0 11 8 -2 9 4 13 16 11 14 -3 17 1 13 12 -4 10 -1 16 9 16 8
0 13 4 10 8 -3 5 11 8 30 7 19 -1 37 2 40 7 3 4 10 6 15 3 5 -4 9 2 10 12 0
11 3 13 6 5 4 -10 9 -9 20 5 8 10 12 12 8 6 -4 -9 -1 -11 9 -7 9 3 13 11 9 18
-3 6 -3 8 2 4 4 -4 15 -2 23 5 13 9 14 9 8 0 -4 -7 -2 -13 3 -13 6 0 11 5 11
10 0 6 3 9 8 9 19 -3 33 2 27 11 -4 6 1 7 11 3 12 -4 15 -3 10 5 -5 8 -1 10
10 5 13 -5 15 -3 9 7 -5 9 -4 11 4 6 15 -9 71 12 89 34 8 8 11 9 7 2 -9 -18 6
-15 22 6 8 10 11 11 7 2 -6 -12 -5 -13 7 -4 8 6 24 10 37 8 15 -3 21 0 16 7
-4 8 -1 8 12 2 23 -11 34 -11 53 1 10 7 12 6 6 -4 -13 -21 38 -1 58 24 10 11
16 15 12 9 -4 -8 0 -13 10 -13 10 0 13 5 9 12 -5 7 -3 8 7 2 14 -9 19 -10 40
-13 5 0 7 -5 4 -11 -3 -5 -3 -11 2 -11 35 -6 52 -5 47 3 -3 4 -11 5 -17 2 -7
-4 -8 -3 -4 2 5 5 13 9 18 9 5 0 10 5 11 10 2 15 32 34 43 27 5 -3 5 1 -2 9
-10 12 -7 15 15 17 14 1 30 6 35 11 6 6 17 5 29 -2 15 -10 21 -9 28 3 5 8 10
10 10 5 0 -14 63 -16 71 -2 4 6 62 10 147 11 90 1 138 5 134 11 -3 6 2 4 12
-4 9 -8 16 -10 15 -5 -5 26 2 34 27 30 20 -4 27 0 31 14 3 11 9 17 14 14 15
-9 10 8 -6 20 -12 9 -4 11 40 10 30 0 55 3 55 8 0 4 7 8 16 8 9 0 12 5 8 13
-6 9 -5 9 7 0 12 -10 18 -10 29 0 10 9 11 9 6 0 -4 -7 -3 -13 1 -13 5 0 15 6
22 13 11 10 13 10 7 -1 -5 -7 -1 -12 9 -12 10 0 13 5 9 12 -6 10 -4 10 7 2 14
-11 51 -5 50 9 -4 38 0 43 32 42 19 -2 31 -7 29 -15 -1 -7 9 -23 24 -37 24
-22 26 -26 11 -35 -9 -5 -17 -14 -17 -21 0 -7 4 -6 10 3 9 13 11 13 20 0 8
-13 11 -13 22 -1 8 9 9 11 1 7 -6 -3 -15 -1 -19 5 -4 7 -3 9 2 6 16 -10 38 9
28 24 -5 8 -9 23 -9 34 0 11 -6 21 -12 21 -7 1 -17 2 -22 3 -21 2 -35 81 -15
81 7 0 16 5 20 12 5 7 2 9 -7 4 -8 -4 -6 -1 4 8 11 8 27 13 37 11 13 -3 17 1
13 11 -3 7 -10 11 -16 7 -6 -3 -7 -1 -3 6 4 6 10 10 14 7 4 -2 16 6 27 17 11
11 14 17 5 13 -8 -4 -4 1 10 13 14 11 36 21 50 23 14 2 24 9 22 16 -1 6 3 12
9 12 5 0 7 4 4 10 -3 5 0 7 7 5 9 -4 14 3 15 16 1 12 7 25 14 29 8 6 8 9 -2
13 -9 4 -8 6 5 6 16 1 17 3 5 18 -10 11 -10 14 -1 9 7 -4 12 -2 12 4 0 6 5 8
11 5 6 -4 9 0 7 11 -2 13 3 19 14 18 10 -1 16 1 13 5 -2 4 5 15 16 24 10 9 19
12 19 7 0 -6 5 -10 11 -10 5 0 7 5 4 10 -3 6 -1 10 5 10 6 0 11 10 10 23 -4
38 0 48 12 41 7 -5 9 -2 5 9 -4 12 -2 14 10 10 11 -4 14 -2 9 5 -4 7 -2 12 4
12 7 0 10 6 7 13 -2 6 -10 11 -16 9 -7 -1 -10 2 -6 8 3 6 10 8 14 6 3 -3 7 4
7 14 0 10 -3 17 -7 15 -3 -3 -15 5 -25 17 -11 12 -13 18 -6 14 8 -5 12 0 12
13 0 11 5 23 12 27 7 5 8 3 3 -6 -5 -9 -4 -11 3 -6 7 4 12 14 12 21 0 8 6 12
13 9 8 -3 14 2 14 11 0 8 -4 15 -9 15 -4 0 1 9 11 19 20 20 23 63 7 90 -7 10
-5 12 3 6 9 -5 11 1 8 23 -4 22 -2 29 8 26 7 -3 16 0 21 7 5 8 3 10 -7 4 -11
-7 -11 -5 1 10 11 14 12 19 3 22 -7 3 -13 9 -13 14 0 6 6 7 13 3 6 -4 3 2 -9
13 -17 17 -20 31 -19 82 2 54 1 60 -13 49 -13 -10 -14 -10 -8 0 4 6 2 12 -4
12 -6 0 -15 11 -20 25 -5 14 -15 24 -22 23 -7 -2 -12 3 -10 11 1 7 -2 19 -8
25 -5 7 -7 16 -3 20 12 11 11 70 -1 85 -8 11 -8 13 2 7 9 -6 12 -1 10 16 -2
12 -7 28 -10 34 -4 6 -4 14 -1 18 4 4 8 32 8 62 1 45 -2 54 -14 49 -14 -4 -14
-4 -1 7 18 15 20 70 2 76 -7 2 -10 8 -6 13 5 9 -10 13 -31 9 -5 -1 -7 2 -3 6
4 4 0 14 -10 23 -10 9 -17 23 -17 31 1 8 -3 20 -7 27 -5 6 -5 14 0 17 5 3 8
21 7 40 -3 38 5 56 26 59 8 2 20 7 28 11 10 6 12 5 7 -2 -4 -7 -2 -12 3 -12 6
0 11 6 12 13 0 6 2 22 5 34 3 17 0 21 -14 17 -16 -5 -16 -5 1 6 19 12 25 46 5
34 -7 -5 -8 -3 -2 7 5 8 9 40 10 73 1 32 -2 53 -6 46 -5 -7 -10 -8 -14 -2 -3
5 0 12 8 15 15 6 16 23 3 44 -4 6 -3 14 3 18 6 4 8 11 5 16 -6 8 9 13 29 10 5
-1 3 6 -5 15 -9 12 -9 15 -1 10 7 -4 12 -1 12 8 0 9 7 16 15 16 8 0 15 -4 15
-9 0 -5 11 -11 25 -13 13 -3 24 -2 23 1 0 3 0 15 1 26 1 17 3 18 11 5 5 -8 10
-13 11 -10 0 3 2 13 4 23 2 13 -1 17 -11 13 -8 -3 -12 -2 -9 3 3 5 1 12 -5 16
-6 4 -8 11 -5 16 4 5 0 9 -7 9 -10 0 -10 2 -1 8 6 4 11 22 11 39 -1 18 -5 30
-10 27 -5 -4 -4 4 4 15 11 18 11 23 -2 31 -8 5 -10 10 -5 10 6 0 11 16 12 35
1 20 -2 33 -6 31 -4 -3 -8 1 -8 9 0 8 4 12 9 9 4 -3 8 2 8 10 0 9 -5 16 -12
16 -6 0 -1 9 11 19 25 22 35 57 19 67 -7 5 -8 2 -4 -7 4 -8 1 -6 -7 4 -17 20
-11 64 12 91 9 10 15 21 15 25 -1 3 2 5 7 3 11 -3 11 -2 14 80 1 37 -2 65 -7
62 -4 -3 -8 0 -8 5 0 6 4 11 8 11 4 0 8 20 9 45 1 33 -2 43 -10 38 -7 -4 -6 0
2 10 11 14 11 17 0 17 -11 0 -11 2 1 10 13 9 13 11 0 20 -9 5 -10 10 -3 10 13
0 12 18 -1 39 -7 10 -6 12 4 6 8 -5 11 -3 8 5 -2 8 3 22 11 31 30 33 36 44 39
69 1 13 8 28 15 32 13 8 18 68 5 68 -4 0 -8 5 -8 11 0 5 5 7 10 4 11 -7 8 30
-3 41 -4 4 -7 12 -7 18 0 6 5 4 10 -4 9 -13 10 -13 10 1 0 8 -5 20 -11 26 -8
8 -8 17 0 30 7 14 7 24 -2 33 -9 10 -9 11 1 6 9 -5 12 4 12 34 0 33 3 41 15
36 8 -3 15 0 15 7 0 8 4 7 11 -3 8 -12 12 -12 16 -2 3 7 16 18 30 23 16 6 23
15 20 24 -4 9 -1 12 8 9 10 -4 13 0 10 15 -2 12 -7 26 -11 33 -4 6 -3 8 4 4 7
-4 9 3 7 21 -2 16 -4 34 -4 42 -1 8 -8 11 -19 9 -10 -3 -23 1 -30 9 -7 7 -8
13 -3 13 6 0 9 15 8 34 -2 24 1 33 11 32 8 -1 16 7 17 17 2 9 -2 17 -8 17 -6
0 -3 6 8 13 11 9 15 19 10 27 -5 9 -4 11 3 6 13 -8 12 20 -1 41 -4 6 -3 14 2
18 5 3 8 14 6 25 -2 11 0 20 5 20 7 0 7 28 0 38 -2 2 -3 32 -1 62 1 11 6 17
14 14 7 -2 21 3 32 12 11 8 15 13 8 10 -14 -8 -26 10 -28 40 0 12 4 20 11 17
6 -2 14 10 18 28 9 45 8 49 -11 50 -15 0 -16 1 -3 7 21 9 22 98 2 94 -8 -1
-11 2 -7 8 3 6 10 8 15 5 5 -3 8 8 8 24 -1 18 -5 28 -11 24 -6 -4 -7 -1 -1 8
12 19 16 121 4 114 -5 -3 -7 -13 -4 -23 5 -14 4 -15 -5 -2 -7 11 -5 20 7 33 9
11 16 21 15 23 -9 13 0 21 20 20 17 -1 22 4 22 24 0 14 -4 31 -10 39 -7 11 -7
13 3 7 7 -4 12 -1 12 9 0 10 -5 13 -12 9 -10 -6 -10 -4 -2 7 12 16 12 48 1 66
-4 6 -3 15 3 18 8 5 7 12 -2 23 -10 12 -10 14 0 8 8 -5 12 1 12 19 0 18 -4 24
-12 19 -10 -6 -10 -4 -2 7 12 16 12 48 1 66 -4 6 -3 15 3 18 8 5 7 12 -2 23
-11 13 -11 14 0 8 11 -7 13 -1 9 28 -4 27 -1 36 9 36 8 0 17 7 20 15 4 8 10
12 15 9 5 -3 13 5 18 18 4 13 12 22 17 20 5 -2 10 1 12 7 2 7 -4 9 -15 5 -17
-5 -17 -5 0 6 9 6 15 15 12 20 -3 6 9 19 27 30 18 11 26 20 18 21 -8 0 -3 5
13 11 15 5 25 13 22 18 -3 4 2 10 10 14 8 3 15 13 15 21 0 9 5 13 10 10 6 -3
13 1 16 10 4 9 12 14 18 12 8 -3 12 14 11 59 -1 42 3 68 12 76 7 6 13 7 13 3
0 -5 9 0 20 10 11 10 17 23 13 29 -4 6 2 4 12 -4 10 -8 16 -10 12 -4 -4 7 1
18 10 25 14 12 16 12 8 -1 -4 -8 2 -5 14 8 12 12 27 20 32 16 6 -3 4 7 -3 22
-17 34 -12 68 8 60 8 -3 14 -1 14 4 0 6 -6 10 -12 10 -10 0 -10 2 0 9 7 4 14
17 15 28 0 11 8 20 17 19 8 -1 14 4 13 11 -2 7 4 10 12 7 10 -4 13 0 10 14 -2
12 3 26 11 32 7 7 11 16 8 21 -3 5 2 9 11 9 8 0 18 7 21 15 4 8 10 12 15 9 8
-5 13 10 10 29 -1 5 8 6 19 2 15 -5 18 -3 14 9 -6 16 0 19 37 19 10 0 16 7 15
15 -3 18 -26 29 -26 13 0 -6 -6 -11 -12 -11 -19 0 -16 52 5 73 9 9 21 17 26
17 5 0 8 17 7 37 -2 30 -7 39 -27 44 -13 4 -19 7 -12 8 6 1 11 10 10 21 -1 22
-13 27 -20 8 -3 -7 -4 2 -2 20 2 20 -1 32 -8 32 -7 0 -6 4 3 10 13 9 13 11 0
20 -12 7 -12 10 -1 10 7 0 11 6 9 13 -2 6 9 26 25 42 16 17 27 25 24 19 -3 -6
0 -11 8 -11 8 0 17 7 20 16 3 8 3 12 -1 8 -4 -4 -15 0 -25 9 -11 10 -25 14
-36 10 -14 -6 -16 -5 -5 5 13 14 17 33 4 25 -5 -3 -9 1 -9 9 0 8 4 12 9 9 5
-3 7 6 4 19 -3 18 1 26 13 30 14 3 18 14 16 46 -1 23 3 44 8 48 6 3 7 1 3 -5
-4 -7 0 -12 10 -12 10 0 15 3 11 6 -3 4 1 13 9 21 8 8 12 18 9 23 -3 4 4 6 15
3 15 -4 19 -1 15 9 -4 9 3 19 17 25 22 10 22 10 -8 17 -23 5 -33 14 -37 32 -3
17 0 24 10 24 10 0 13 6 9 17 -4 10 -4 14 0 10 4 -4 13 1 21 11 8 9 11 11 7 3
-5 -9 -3 -12 5 -7 14 9 5 26 -15 26 -8 0 -14 6 -13 13 3 25 -1 38 -11 32 -5
-3 -11 -1 -11 4 -1 6 -3 16 -4 21 -1 6 -3 15 -4 20 0 6 -17 9 -36 7 -29 -4
-35 -1 -35 14 0 18 4 20 40 23 8 1 14 10 14 19 -1 10 1 16 4 13 3 -3 12 0 20
7 9 6 13 7 9 1 -3 -6 0 -11 7 -11 7 0 12 10 11 21 -1 15 -8 21 -24 20 -17 -1
-21 3 -19 20 2 11 9 20 15 19 6 -1 17 5 25 15 12 15 11 16 -4 3 -16 -12 -18
-11 -19 8 -2 36 -4 41 -11 41 -44 0 -44 0 -25 -15 17 -12 15 -13 -18 -11 -36
3 -59 21 -48 39 3 4 -3 15 -13 23 -17 13 -17 13 -1 8 13 -5 16 -2 11 10 -3 9
-12 16 -20 16 -8 0 -14 5 -14 11 0 6 -10 8 -22 5 -13 -3 -17 -3 -10 0 18 8 15
22 -8 29 -11 4 -17 11 -14 17 4 6 0 14 -7 19 -9 5 -10 9 -2 9 6 0 10 8 8 18
-1 9 -8 16 -15 14 -6 -1 -9 2 -5 8 3 5 0 10 -7 10 -10 0 -10 2 1 9 8 5 12 18
8 31 -4 16 1 24 19 32 24 11 33 28 14 28 -5 0 -10 12 -10 26 0 14 -4 23 -10
19 -5 -3 -10 -1 -10 4 0 6 5 11 11 11 8 0 8 4 2 13 -6 6 -13 25 -17 40 -4 15
-10 26 -14 23 -4 -2 -13 2 -20 10 -7 8 -8 14 -2 14 5 0 10 7 10 15 0 8 5 15
10 15 6 0 10 8 10 18 0 14 -2 15 -10 2 -8 -12 -10 -9 -10 13 0 20 -4 26 -12
21 -9 -5 -9 -2 1 9 17 22 -1 47 -34 47 -19 0 -22 4 -19 31 3 22 0 28 -9 23 -9
-6 -9 -4 1 8 10 13 10 17 0 21 -10 4 -10 6 0 6 6 1 12 6 12 12 0 5 -6 7 -12 3
-10 -6 -10 -5 -1 7 16 20 13 58 -4 52 -9 -3 -11 0 -7 10 6 17 -25 59 -38 51
-4 -3 -3 7 2 21 6 17 6 24 0 20 -5 -3 -18 -1 -29 5 -14 7 -18 17 -15 36 3 14
1 23 -4 20 -5 -3 -9 1 -9 9 0 8 4 12 9 9 11 -7 10 4 -2 19 -6 7 -18 21 -26 32
-9 11 -12 14 -8 6 4 -9 3 -12 -3 -8 -6 4 -13 21 -17 39 -5 26 -9 30 -16 18 -8
-12 -10 -12 -11 5 -1 11 -1 35 0 53 1 24 -2 32 -10 26 -8 -5 -9 -3 -4 7 13 20
15 59 4 59 -6 0 -7 -5 -3 -12 4 -7 3 -8 -5 -4 -6 4 -8 12 -5 18 4 6 -2 18 -12
26 -15 12 -16 14 -2 9 12 -4 15 -2 11 9 -5 12 -18 19 -26 12 -6 -6 -34 28 -34
42 0 33 -4 39 -23 35 -15 -3 -20 2 -20 16 0 11 -4 18 -8 15 -5 -3 -9 1 -9 9 0
8 4 12 8 10 11 -7 6 49 -6 57 -6 5 -5 8 3 8 6 0 12 5 12 11 0 5 -6 7 -12 3
-10 -6 -10 -4 0 7 6 7 12 17 12 22 0 4 -6 5 -12 1 -9 -5 -9 -2 1 9 11 14 11
20 0 34 -9 10 -9 14 -2 10 8 -5 12 1 10 20 -2 31 -27 63 -42 54 -5 -2 -5 2 2
10 9 11 7 19 -13 38 -19 18 -22 27 -13 43 7 14 7 23 -2 34 -13 16 -9 24 14 28
8 1 23 8 33 16 17 14 18 13 6 -2 -12 -15 -11 -17 7 -15 12 1 21 5 21 10 0 4 4
6 9 3 4 -3 13 6 19 19 6 14 8 24 4 24 -24 -4 -42 3 -42 15 0 8 5 16 10 18 6 2
12 13 14 25 3 16 1 20 -10 16 -9 -3 -14 2 -14 17 0 14 -4 19 -12 14 -10 -6
-10 -4 0 7 14 16 16 53 2 44 -5 -3 -10 -1 -10 4 0 6 6 11 13 11 6 0 4 5 -7 11
-14 9 -20 8 -27 -2 -7 -12 -9 -12 -9 0 0 11 -3 11 -17 0 -14 -12 -16 -12 -8 0
6 11 4 13 -8 8 -21 -8 -34 12 -31 46 2 15 -1 25 -6 22 -4 -3 -3 6 3 20 7 14
19 25 27 26 10 0 8 3 -5 9 -16 7 -17 9 -3 9 9 1 22 9 27 19 6 9 11 12 11 6 0
-16 30 -13 30 3 0 7 3 12 8 11 4 -2 22 12 40 30 18 17 29 32 25 32 -4 0 3 7
16 16 18 13 20 18 10 25 -10 6 -11 9 -1 9 6 0 12 5 12 11 0 5 -6 7 -12 3 -8
-5 -7 0 2 11 9 11 10 16 3 11 -8 -4 -13 -2 -13 4 0 6 -5 8 -12 4 -7 -4 -8 -3
-4 5 9 14 -2 53 -13 46 -8 -4 -61 38 -61 50 0 3 8 5 18 5 11 0 13 3 6 8 -9 5
-8 10 2 20 7 7 16 12 19 12 3 0 4 3 3 8 -2 4 -6 6 -10 4 -5 -1 -8 14 -8 33 0
21 5 34 12 33 7 -2 12 13 13 38 1 38 -1 41 -25 42 -44 0 -46 2 -20 22 21 17
23 21 10 30 -11 7 -11 10 -2 10 7 0 10 5 7 10 -5 9 8 12 31 9 4 0 10 5 15 13
5 7 14 13 20 13 7 0 14 6 17 14 3 9 0 11 -8 6 -8 -5 -11 -4 -6 3 3 6 15 9 26
7 13 -2 18 0 14 6 -8 13 16 60 27 53 4 -2 10 -1 13 4 8 13 -27 11 -43 -2 -11
-8 -13 -8 -7 2 4 6 2 12 -3 12 -6 0 -11 7 -11 15 0 8 4 15 8 15 5 0 22 20 40
45 17 25 26 45 20 45 -7 0 -3 6 7 14 11 8 24 12 29 9 5 -4 7 -2 4 3 -10 16 11
56 24 48 7 -4 6 1 -3 11 -16 16 -18 16 -48 -6 -17 -12 -31 -26 -31 -29 0 -10
-32 -5 -56 8 -12 6 -23 9 -26 7 -3 -3 -4 19 -4 49 1 30 4 52 8 50 11 -7 59 27
53 36 -3 4 2 11 11 14 10 4 14 13 10 28 -3 13 -3 17 0 11 3 -7 13 -13 22 -13
14 0 14 2 3 9 -11 7 -11 9 0 14 12 4 11 7 -1 16 -13 9 -12 11 5 12 11 1 31 1
45 1 18 -1 21 1 11 7 -11 7 -10 11 5 19 9 5 19 17 20 26 2 14 0 15 -12 5 -12
-10 -13 -9 -8 6 6 14 4 16 -7 10 -12 -7 -12 -6 -1 7 9 12 10 18 2 23 -7 4 -14
-2 -17 -13 -3 -14 -10 -19 -21 -15 -10 4 -13 2 -8 -5 4 -7 1 -12 -8 -12 -9 0
-18 0 -21 0 -3 0 -14 -9 -25 -20 -11 -11 -26 -17 -35 -14 -8 4 -17 -1 -21 -10
-3 -9 -15 -16 -26 -16 -12 0 -17 -4 -12 -12 4 -7 3 -8 -4 -4 -7 4 -12 14 -12
22 0 10 -5 12 -12 8 -10 -6 -10 -4 0 8 14 17 13 39 -3 50 -6 5 -5 8 3 8 6 0
12 7 12 16 0 9 -5 12 -12 8 -9 -5 -9 -2 1 9 11 14 11 17 0 17 -10 0 -10 3 -1
12 16 16 15 31 0 22 -10 -6 -10 -4 0 8 10 13 10 17 0 21 -10 4 -10 6 0 6 6 1
12 8 12 17 0 9 -5 12 -12 8 -10 -6 -10 -4 0 7 6 7 12 17 12 22 0 4 -6 5 -12 1
-10 -6 -10 -5 -1 7 12 15 12 36 0 56 -4 6 -3 15 3 18 13 8 10 44 -5 63 -5 7
-22 26 -36 41 -23 25 -27 27 -37 12 -10 -14 -11 -13 -5 3 6 19 6 19 -14 0 -11
-10 -17 -23 -14 -29 2 -5 -3 -4 -12 4 -9 7 -23 11 -31 8 -9 -4 -13 0 -11 11 1
9 -2 26 -9 37 -6 11 -11 34 -11 51 1 31 -7 36 -32 21 -8 -5 -13 -3 -13 3 0 6
-8 10 -17 9 -36 -3 -53 1 -50 14 1 7 -6 11 -16 9 -9 -2 -17 1 -16 5 5 29 -2
36 -16 16 -8 -12 -23 -20 -32 -18 -10 2 -21 4 -25 4 -5 1 -7 4 -7 9 3 19 -2
25 -11 12 -8 -12 -10 -10 -11 10 -2 48 0 95 5 128 4 24 1 32 -10 32 -9 0 -12
-5 -8 -11 3 -6 -5 -4 -19 5 -19 13 -24 24 -22 49 2 18 -2 35 -8 39 -9 6 -9 8
1 8 6 0 12 5 12 11 0 5 -6 7 -12 3 -10 -6 -10 -5 -1 7 27 34 -2 70 -36 45 -11
-8 -13 -8 -8 0 3 6 0 11 -8 11 -8 0 -12 -4 -9 -8 2 -4 -5 -13 -16 -19 -11 -6
-18 -15 -15 -19 3 -5 -2 -12 -10 -15 -10 -3 -18 1 -22 12 -4 9 -11 20 -17 24
-7 5 -7 8 2 8 6 0 12 5 12 11 0 5 -6 7 -12 3 -10 -6 -10 -4 0 7 14 15 17 43 3
35 -4 -3 -6 6 -3 19 3 20 1 24 -17 20 -17 -3 -21 1 -21 21 0 21 -3 24 -22 19
-14 -4 -18 -3 -11 2 20 14 -1 34 -38 37 -22 2 -35 8 -37 19 -2 9 -8 17 -13 17
-6 0 -7 -4 -4 -10 3 -5 2 -10 -3 -10 -5 0 -12 9 -15 20 -3 11 -13 20 -22 20
-11 0 -15 5 -12 14 4 10 0 14 -12 11 -10 -2 -25 5 -34 16 -9 10 -13 19 -8 19
6 0 9 13 9 30 -1 17 -5 27 -11 23 -6 -3 -7 -1 -3 5 4 6 -3 21 -14 32 -27 27
-49 12 -47 -33 2 -31 1 -32 -36 -29 -30 2 -37 0 -31 -10 6 -10 5 -11 -8 -1 -8
7 -17 10 -20 7 -3 -3 -5 8 -3 24 1 17 -3 29 -9 29 -6 0 -22 1 -36 2 -20 1 -22
3 -10 11 10 7 11 10 3 11 -7 1 -19 2 -25 3 -7 1 -19 -3 -27 -8 -11 -8 -13 -8
-7 2 4 7 1 12 -9 12 -9 0 -14 -4 -11 -9 5 -8 -15 -8 -34 -1 -3 1 -8 2 -12 1
-5 0 -9 6 -9 14 -2 24 -4 29 -13 44 -6 10 -5 12 2 7 7 -4 12 -1 12 8 0 27 -12
46 -29 46 -14 0 -14 -2 -1 -10 9 -6 10 -10 3 -10 -6 0 -15 5 -18 10 -3 6 -14
10 -25 10 -13 0 -17 5 -13 19 3 12 -2 20 -16 24 -16 4 -22 0 -27 -19z m441
-154 c3 -5 1 -10 -4 -10 -6 0 -11 5 -11 10 0 6 2 10 4 10 3 0 8 -4 11 -10z
m1045 -1680 c0 -5 -2 -10 -4 -10 -3 0 -8 5 -11 10 -3 6 -1 10 4 10 6 0 11 -4
11 -10z m-8633 -1822 c-3 -8 -6 -5 -6 6 -1 11 2 17 5 13 3 -3 4 -12 1 -19z
m8930 -693 c0 -8 -4 -12 -9 -9 -5 3 -6 10 -3 15 9 13 12 11 12 -6z m-10280
-6250 c0 -8 -4 -12 -9 -9 -5 3 -6 10 -3 15 9 13 12 11 12 -6z m603 -335 c0 -5
-2 -10 -4 -10 -3 0 -8 5 -11 10 -3 6 -1 10 4 10 6 0 11 -4 11 -10z m8390 -736
c0 -8 -19 -13 -24 -6 -3 5 1 9 9 9 8 0 15 -2 15 -3z m-1393 -270 c-3 -3 -12
-4 -19 -1 -8 3 -5 6 6 6 11 1 17 -2 13 -5z m-6200 -759 c0 -8 -4 -12 -9 -9 -5
3 -6 10 -3 15 9 13 12 11 12 -6z m283 -495 c0 -5 -5 -10 -11 -10 -5 0 -7 5 -4
10 3 6 8 10 11 10 2 0 4 -4 4 -10z m4091 -363 c-10 -9 -11 -8 -5 6 3 10 9 15
12 12 3 -3 0 -11 -7 -18z m-356 -197 c-3 -5 -12 -10 -18 -10 -7 0 -6 4 3 10
19 12 23 12 15 0z m-1341 -478 c3 -5 -1 -9 -9 -9 -8 0 -12 4 -9 9 3 4 7 8 9 8
2 0 6 -4 9 -8z"/>
<path d="M8930 14056 c0 -2 8 -10 18 -17 15 -13 16 -12 3 4 -13 16 -21 21 -21
13z"/>
<path d="M11192 14034 c2 -11 8 -22 13 -26 6 -5 5 -8 -2 -8 -7 0 -13 -4 -13
-10 0 -5 6 -10 13 -10 17 0 15 62 -2 68 -7 2 -11 -3 -9 -14z"/>
<path d="M11500 13621 c0 -6 4 -12 8 -15 5 -3 9 1 9 9 0 8 -4 15 -9 15 -4 0
-8 -4 -8 -9z"/>
<path d="M12045 12410 c-3 -5 -1 -10 4 -10 6 0 11 5 11 10 0 6 -2 10 -4 10 -3
0 -8 -4 -11 -10z"/>
<path d="M11507 5333 c-4 -3 -7 -11 -7 -17 0 -6 5 -5 12 2 6 6 9 14 7 17 -3 3
-9 2 -12 -2z"/>
<path d="M2830 3310 c0 -5 5 -10 11 -10 5 0 7 5 4 10 -3 6 -8 10 -11 10 -2 0
-4 -4 -4 -10z"/>
</g>
</svg>
